<svg width="188" height="188" viewBox="0 0 188 188" fill="none" xmlns="http://www.w3.org/2000/svg">
<path d="M71.8097 25.1818C87.1019 6.93365 120.579 -18.6138 132.147 25.1818L148.105 9.25614L170.046 25.1818L148.105 65.4937C164.062 62.01 190.092 66.4891 166.555 112.275L187 125.713L175.531 143.131C184.34 161.877 189.294 195.786 138.63 181.453C125.665 188.918 100.034 194.691 101.231 158.062L83.2788 174.983L59.8418 158.062L38.8981 178.964L15.4611 153.583L26.4316 143.131L11.4718 136.164L23.4397 81.9171L1 63.0053L46.378 1.79099L71.8097 13.7353V25.1818Z" fill="white" stroke="url(#paint0_linear_121_537)"/>
<defs>
<linearGradient id="paint0_linear_121_537" x1="94" y1="1" x2="94" y2="187" gradientUnits="userSpaceOnUse">
<stop stop-color="#FBA34C"/>
<stop offset="1" stop-color="#B06EEB"/>
</linearGradient>
</defs>
</svg>
